<mxfile host="app.diagrams.net" modified="2023-03-04T01:23:12.698Z" agent="5.0 (Windows NT 10.0; Win64; x64) AppleWebKit/537.36 (KHTML, like Gecko) Chrome/110.0.0.0 Safari/537.36 Edg/110.0.1587.57" etag="qkozQXibLhUphLxE4rq_" version="20.8.23" type="github">
  <diagram name="Página-1" id="eO0C-Ij1b_x-fJ0nXUy5">
    <mxGraphModel dx="1387" dy="788" grid="1" gridSize="10" guides="1" tooltips="1" connect="1" arrows="1" fold="1" page="1" pageScale="1" pageWidth="827" pageHeight="1169" math="0" shadow="0">
      <root>
        <mxCell id="0" />
        <mxCell id="1" parent="0" />
        <mxCell id="kIMaGPIQY0EV_w5kKxTt-1" value="Sistema de información de Agua" style="swimlane;fontStyle=1;align=center;verticalAlign=top;childLayout=stackLayout;horizontal=1;startSize=26;horizontalStack=0;resizeParent=1;resizeParentMax=0;resizeLast=0;collapsible=1;marginBottom=0;" vertex="1" parent="1">
          <mxGeometry x="50" width="240" height="124" as="geometry" />
        </mxCell>
        <mxCell id="kIMaGPIQY0EV_w5kKxTt-2" value="+ calidadAgua: String&#xa;+ idDenuncias: int&#xa;+ Relaciones Públicas&#xa;" style="text;strokeColor=none;fillColor=none;align=left;verticalAlign=top;spacingLeft=4;spacingRight=4;overflow=hidden;rotatable=0;points=[[0,0.5],[1,0.5]];portConstraint=eastwest;" vertex="1" parent="kIMaGPIQY0EV_w5kKxTt-1">
          <mxGeometry y="26" width="240" height="64" as="geometry" />
        </mxCell>
        <mxCell id="kIMaGPIQY0EV_w5kKxTt-3" value="" style="line;strokeWidth=1;fillColor=none;align=left;verticalAlign=middle;spacingTop=-1;spacingLeft=3;spacingRight=3;rotatable=0;labelPosition=right;points=[];portConstraint=eastwest;strokeColor=inherit;" vertex="1" parent="kIMaGPIQY0EV_w5kKxTt-1">
          <mxGeometry y="90" width="240" height="8" as="geometry" />
        </mxCell>
        <mxCell id="kIMaGPIQY0EV_w5kKxTt-4" value="+ método (tipo): tipo" style="text;strokeColor=none;fillColor=none;align=left;verticalAlign=top;spacingLeft=4;spacingRight=4;overflow=hidden;rotatable=0;points=[[0,0.5],[1,0.5]];portConstraint=eastwest;" vertex="1" parent="kIMaGPIQY0EV_w5kKxTt-1">
          <mxGeometry y="98" width="240" height="26" as="geometry" />
        </mxCell>
      </root>
    </mxGraphModel>
  </diagram>
</mxfile>
